<svg height="60" width="60" xmlns="http://www.w3.org/2000/svg">
    <circle r="29" cx="30" cy="30" fill="white" />
    <g fill="#161514" fill-rule="evenodd">
        <path d="M30 0C13.434 0 0 13.542 0 30.247 0 43.61 8.596 54.949 20.516 58.948c1.5.28 2.05-.656 2.05-1.455 0-.721-.028-3.104-.041-5.631-8.346 1.83-10.107-3.57-10.107-3.57-1.365-3.495-3.331-4.425-3.331-4.425-2.722-1.877.205-1.839.205-1.839 3.013.214 4.599 3.117 4.599 3.117 2.676 4.624 7.018 3.288 8.73 2.515.27-1.955 1.047-3.29 1.905-4.045-6.664-.765-13.669-3.358-13.669-14.948 0-3.302 1.172-6 3.091-8.119-.311-.761-1.338-3.838.291-8.004 0 0 2.52-.813 8.252 3.1 2.393-.67 4.96-1.006 7.51-1.017 2.549.011 5.117.347 7.515 1.017 5.726-3.913 8.241-3.1 8.241-3.1 1.633 4.166.606 7.243.295 8.004 1.923 2.119 3.087 4.817 3.087 8.12 0 11.616-7.018 14.174-13.698 14.923 1.076.939 2.034 2.78 2.034 5.601 0 4.048-.034 7.305-.034 8.301 0 .805.54 1.748 2.06 1.451C51.415 54.94 60 43.606 60 30.247 60 13.542 46.568 0 30 0"/><path d="M11.451 43.22c-.066.15-.3.194-.513.092-.217-.098-.34-.301-.269-.45.065-.153.3-.196.516-.093.217.097.341.302.266.451M12.664 44.573c-.143.133-.422.071-.611-.138-.196-.209-.233-.488-.088-.623.147-.132.418-.07.614.139.196.211.234.488.085.622M13.845 46.298c-.184.128-.484.008-.67-.258-.183-.267-.183-.586.005-.714.186-.128.481-.013.67.252.182.27.182.59-.005.72M15.462 47.964c-.164.181-.514.133-.77-.114-.261-.242-.334-.584-.17-.765.167-.182.518-.13.776.114.26.241.34.586.164.765M17.694 48.932c-.073.235-.41.341-.749.242-.338-.103-.56-.378-.492-.615.07-.236.409-.347.75-.24.339.102.561.374.49.613M20.144 49.112c.009.247-.279.451-.635.456-.358.008-.648-.192-.652-.435 0-.25.282-.452.64-.458.356-.007.647.191.647.437M22.425 48.723c.042.241-.205.489-.559.555-.347.063-.67-.086-.713-.325-.043-.247.208-.494.556-.558.354-.062.67.083.716.328"/>
    </g>
</svg>