<svg height="60" width="60" xmlns="http://www.w3.org/2000/svg"><g fill="none" fill-rule="evenodd"><path d="M0 30C0 13.431 13.431 0 30 0c16.569 0 30 13.431 30 30 0 16.569-13.431 30-30 30C13.431 60 0 46.569 0 30z" fill="#E84352"/><path d="M43.275 15h-26.55C14.115 15 12 17.132 12 19.761v13.19c0 .244.018.485.054.72-.036.351-.054.706-.054 1.065 0 7.56 8.058 13.692 18 13.692 9.941 0 18-6.132 18-13.692 0-.359-.02-.714-.055-1.065a4.84 4.84 0 0 0 .055-.72V19.76C48 17.131 45.882 15 43.275 15zm-2.237 13.26l-9.297 9.296a2.384 2.384 0 0 1-1.712.7 2.382 2.382 0 0 1-1.772-.7l-9.295-9.296a2.39 2.39 0 0 1 3.38-3.38L30 32.539l7.659-7.659a2.39 2.39 0 0 1 3.38 3.38z" fill="#FFF" fill-rule="nonzero"/></g></svg>